<?xml version="1.0" encoding="UTF-8" standalone="no"?>
<!-- Created with Inkscape (http://www.inkscape.org/) -->

<svg
   width="196.67995mm"
   height="42.185757mm"
   viewBox="0 0 196.67995 42.185757"
   version="1.1"
   id="svg1"
   xmlns="http://www.w3.org/2000/svg"
   xmlns:svg="http://www.w3.org/2000/svg">
  <defs
     id="defs1" />
  <g
     id="layer1"
     transform="translate(-3.2076479,-69.859793)">
    <path
       style="-inkscape-font-specification:'Poppins, Heavy';fill:none;stroke:#ffffff;stroke-width:2.272;stroke-dasharray:none"
       d="m 37.06524,71.654617 v 9.66275 H 26.743664 V 110.52524 H 14.55542 V 81.317367 H 4.3436477 v -9.66275 z m 15.482319,9.71766 v 4.77647 h 12.07844 v 9.16863 h -12.07844 v 5.490203 h 13.7255 v 9.71766 H 40.359315 V 71.654617 h 25.913744 v 9.71766 z M 90.429925,110.52524 83.127959,96.580127 h -0.0549 V 110.52524 H 70.884813 V 71.654617 h 18.11766 q 4.721572,0 8.070594,1.70196 3.349023,1.64706 4.996083,4.55687 1.70196,2.8549 1.70196,6.47844 0,3.89804 -2.19608,6.91765 -2.141177,3.01961 -6.203925,4.33726 l 8.454905,14.878443 z M 83.073057,88.454627 h 4.831376 q 1.756864,0 2.635296,-0.76862 0.878432,-0.82353 0.878432,-2.5255 0,-1.53725 -0.933334,-2.41568 -0.878432,-0.87844 -2.580394,-0.87844 H 83.073057 Z M 154.39076,71.654617 V 110.52524 H 142.25742 V 91.144827 L 136.2731,110.52524 H 125.84172 L 119.8574,91.144827 V 110.52524 H 107.66916 V 71.654617 h 14.93334 l 8.56471,23.33335 8.34511,-23.33335 z m 24.4314,39.254933 q -5.4902,0 -10.10197,-2.58039 -4.55686,-2.5804 -7.24706,-7.13726 -2.6902,-4.556873 -2.6902,-10.266683 0,-5.7098 2.6902,-10.26667 2.6902,-4.55687 7.24706,-7.08236 4.61177,-2.58039 10.10197,-2.58039 5.4902,0 10.04707,2.58039 4.55686,2.52549 7.19216,7.08236 2.6902,4.55687 2.6902,10.26667 0,5.70981 -2.6902,10.266683 -2.6353,4.55686 -7.24706,7.13726 -4.55687,2.58039 -9.99217,2.58039 z m 0,-11.364713 q 3.62353,0 5.60001,-2.30589 1.97647,-2.36078 1.97647,-6.31373 0,-4.00784 -1.97647,-6.31373 -1.97648,-2.36078 -5.60001,-2.36078 -3.67843,0 -5.6549,2.36078 -1.97648,2.30589 -1.97648,6.31373 0,3.95295 1.97648,6.31373 1.97647,2.30589 5.6549,2.30589 z"
       id="text1"
       aria-label="TERMO" />
    <path
       style="fill:none;stroke:#ffffff;stroke-width:0.472;stroke-dasharray:none"
       d="m 4.5881667,76.560407 5.6346393,-4.72583 -5.0893518,7.99755 8.9063648,-7.99755 -5.8164014,9.08813 11.6328024,-8.72461 -6.361689,8.90637 11.814565,-8.90637 -9.815177,11.99633 16.176865,-11.45104 -16.54039,17.08568 21.084456,-15.08629 -5.998165,6.17993"
       id="path11" />
    <path
       style="fill:none;stroke:#ffffff;stroke-width:0.472;stroke-dasharray:none"
       d="m 15.493919,90.737877 11.45104,-4.90759 -12.541615,10.724 12.359853,-5.81641 -11.814566,10.542233 11.451041,-6.179933 -10.905753,7.815803 10.360465,-1.81763 -11.632803,6.72521 12.178091,-2.18115 -4.907589,4.72583"
       id="path12" />
    <path
       style="fill:none;stroke:#ffffff;stroke-width:0.472;stroke-dasharray:none"
       d="m 65.115094,105.82417 -6.906977,4.36231 5.452877,-9.26989 -11.99633,9.63341 6.543453,-9.81518 -12.90514,9.99694 6.906975,-11.087513 -12.359852,6.179923 14.541003,-11.087513 -13.268666,4.54406 19.630355,-12.54161 -19.812116,9.08812 12.541615,-9.99694 -12.178091,2.54468 12.178091,-6.36169 -11.996328,2.36292 19.085068,-12.90515 c 0,0 -20.357406,8.90637 -19.630355,8.36108 0.727048,-0.54529 8.54284,-8.36108 8.54284,-8.36108"
       id="path13" />
    <path
       style="fill:none;stroke:#ffffff;stroke-width:0.672;stroke-dasharray:none"
       d="m 59.84398,72.561627 c -1.817627,1.27234 -6.543453,8.17931 -6.543453,8.17931 l 13.086906,-6.17992"
       id="path14" />
    <path
       style="fill:none;stroke:#ffffff;stroke-width:0.872;stroke-dasharray:none"
       d="m 63.297467,86.739107 -6.906977,8.17931"
       id="path15" />
    <path
       style="fill:none;stroke:#ffffff;stroke-width:0.472;stroke-dasharray:none"
       d="m 71.476783,109.27766 c 0.727048,-0.90881 11.087515,-4.72582 11.087515,-4.72582 l -10.905752,1.09057 11.45104,-5.998163 -12.178091,3.453493 11.45104,-6.906983 -11.632803,1.4541 13.086902,-5.08935 -12.905139,0.90881 12.178091,-5.45287 c 0,0 -13.086903,0 -11.996327,-0.18177 1.090572,-0.18176 11.814563,-4.72582 11.814563,-4.72582 l -11.814563,0.90881 11.6328,-6.36169 -11.996327,3.45349 14.722766,-8.54284 -14.722766,3.45349"
       id="path16" />
    <path
       style="fill:none;stroke:#ffffff;stroke-width:0.472;stroke-dasharray:none"
       d="m 92.561238,72.379867 -10.542228,5.8164 16.176866,-3.99878 -13.995715,7.99755 16.903919,-4.54406 -11.087517,5.45288 13.268667,-1.99939 -11.087516,5.99816 9.451646,-0.90881 c 0,0 -15.813336,3.81701 -14.359236,3.63525 1.4541,-0.18176 13.995716,0.36353 13.995716,0.36353 l -17.630966,2.72644 12.541615,1.09057 -11.996328,2.72644 12.359852,0.54528 -9.99694,3.089973 11.632803,-0.545293 c 0,0 -11.45104,5.452883 -10.542228,5.089353 0.908812,-0.36352 11.814567,-0.90881 11.814567,-0.90881 l -7.452265,5.45288"
       id="path17" />
    <path
       style="fill:none;stroke:#ffffff;stroke-width:0.472;stroke-dasharray:none"
       d="m 108.19281,78.923317 c 1.09058,-1.81763 8.36108,-7.2705 8.36108,-7.2705 l -8.36108,12.90514 15.0863,-10.36047 -15.63158,15.44982 16.72215,-10.54223 c 0,0 -17.54008,12.54161 -16.81303,12.35985 0.72705,-0.18176 18.35801,-8.7246 18.35801,-8.7246 l -19.17595,13.26867 12.72338,-1.99939 -10.72399,7.088743 10.36047,-1.635863 -11.26928,8.179313 11.08751,-1.4541 -7.08874,5.27111"
       id="path18" />
    <path
       style="fill:none;stroke:#ffffff;stroke-width:0.572;stroke-dasharray:none"
       d="m 125.64202,82.922097 c 0,0 -6.36169,9.81517 -5.63464,9.81517 0.72705,0 8.54284,-3.81701 8.54284,-3.81701 l -6.17993,8.54284 7.81579,-3.63525 c 0,0 -6.90697,12.178093 -6.17993,11.269283 0.72706,-0.90882 8.72461,-8.724613 8.17932,-7.452273 -0.54529,1.27234 -6.36169,10.996633 -6.36169,10.996633 l 11.99633,-4.08965"
       id="path19" />
    <path
       style="fill:none;stroke:#ffffff;stroke-width:0.472;stroke-dasharray:none"
       d="m 153.45169,105.64241 c -4.72583,2.18115 -9.81518,3.99878 -9.81518,3.99878 0,0 11.99633,-13.450433 11.08751,-12.905143 -0.90881,0.54528 -12.54161,7.270503 -12.54161,7.270503 l 11.45104,-14.904533 -10.36046,5.27112 10.54222,-7.99756 c 0,0 -11.26928,5.63464 -10.90575,4.54407 0.36353,-1.09058 11.26928,-9.99694 11.26928,-9.99694 0,0 -15.63158,5.27111 -14.72277,4.72582 0.90881,-0.54529 14.541,-8.90636 14.541,-8.90636 0,0 -15.63157,5.08935 -14.35924,4.18054 1.27234,-0.90882 12.90514,-9.81518 12.90514,-9.81518 l -14.35924,4.90759"
       id="path20" />
    <path
       style="fill:none;stroke:#ffffff;stroke-width:0.472;stroke-dasharray:none"
       d="m 131.36754,96.645167 c 4.3623,-1.99939 9.63341,-3.81701 9.63341,-3.81701 l -8.81548,-0.27265 10.36046,-2.18115 -8.17931,-1.81763 6.17993,-3.27172"
       id="path21" />
    <path
       style="fill:none;stroke:#ffffff;stroke-width:0.472;stroke-dasharray:none"
       d="m 132.54899,98.190147 c 1.09058,0 7.08874,-0.36353 7.08874,-0.36353 L 126.1873,108.55061"
       id="path22" />
    <path
       style="fill:none;stroke:#ffffff;stroke-width:0.472001;stroke-dasharray:none"
       d="m 170.17384,73.470437 14.90453,-0.36352 -12.17809,2.9082 17.99449,0.36352 -11.45104,2.72644 15.08629,0.90881 -11.26928,2.54468 13.45043,1.4541 -9.81517,5.63464 11.81456,1.09057 -11.81456,2.9082 9.81517,2.72644 c 0,0 -18.35802,2.72644 -16.17686,2.72644 2.18115,0 13.99571,1.817633 13.99571,1.817633 0,0 -18.9033,2.18115 -16.54039,1.99939 2.36291,-0.18177 14.541,1.99938 14.541,1.99938 0,0 -14.541,1.63587 -13.81395,1.63587 0.72705,0 7.45226,2.54467 7.45226,2.54467 l -19.08506,-1.81763 11.08751,-2.72643 c 0,0 -16.72216,-1.63586 -15.08629,-1.63586 1.63586,0 14.90453,-1.09058 13.63219,-1.09058 -1.27233,0 -15.26805,-2.181153 -15.26805,-2.181153 l 13.45043,-1.09058 -14.54101,-1.4541 10.90576,-1.09057 c 0,0 -13.26867,-2.36292 -12.54162,-2.36292 0.72705,0 13.26867,-0.72704 13.26867,-0.72704 0,0 -16.90392,-3.63526 -13.45043,-3.63526 3.45349,0 14.17748,-4.18054 14.17748,-4.18054 l -12.35986,-1.81762 14.90453,-0.72705 -11.81456,-2.36291 15.44981,1.4541 -14.541,-4.54407 10.1787,-1.4541"
       id="path23" />
  </g>
</svg>
