<?xml version="1.0" encoding="UTF-8" standalone="no"?>
<!-- Created with Inkscape (http://www.inkscape.org/) -->

<svg
   version="1.1"
   id="svg1"
   width="1024"
   height="1024"
   viewBox="0 0 1024 1024"
   sodipodi:docname="ChatGPT Image 13 de abr. de 2025, 19_57_23.png"
   inkscape:version="1.3.2 (091e20e, 2023-11-25, custom)"
   inkscape:dataloss="true"
   xmlns:inkscape="http://www.inkscape.org/namespaces/inkscape"
   xmlns:sodipodi="http://sodipodi.sourceforge.net/DTD/sodipodi-0.dtd"
   xmlns="http://www.w3.org/2000/svg"
   xmlns:svg="http://www.w3.org/2000/svg">
  <defs
     id="defs1" />
  <sodipodi:namedview
     id="namedview1"
     pagecolor="#ffffff"
     bordercolor="#000000"
     borderopacity="0.25"
     inkscape:showpageshadow="2"
     inkscape:pageopacity="0.0"
     inkscape:pagecheckerboard="0"
     inkscape:deskcolor="#d1d1d1"
     inkscape:zoom="0.79394531"
     inkscape:cx="545.37761"
     inkscape:cy="466.65683"
     inkscape:window-width="1920"
     inkscape:window-height="1009"
     inkscape:window-x="-8"
     inkscape:window-y="-8"
     inkscape:window-maximized="1"
     inkscape:current-layer="g1" />
  <g
     inkscape:groupmode="layer"
     inkscape:label="Image"
     id="g1">
    <path
       style="fill:#000000"
       d="m 132.65355,661.74703 c -0.38042,-0.38043 -0.69168,-30.76668 -0.69168,-67.52502 v -66.83333 h -27.44098 c -15.092544,0 -27.580044,-0.3375 -27.750003,-0.75 -0.169959,-0.4125 -0.172165,-6.9375 -0.0049,-14.5 l 0.304114,-13.75 h 70.301279 70.30128 l 0.47711,6.25 c 0.26242,3.4375 0.21499,9.85 -0.10539,14.25 l -0.58251,8 -27,0.5 -27,0.5 -0.16587,67 -0.16587,67 -14.89245,0.27501 c -8.19085,0.15126 -15.20371,-0.0362 -15.58413,-0.41666 z m 129.30832,-1.24409 C 245.00298,655.02 235.37706,644.32981 232.864,628.18793 c -0.61612,-3.95747 -0.87774,-24.68629 -0.66768,-52.90319 0.29972,-40.26143 0.56858,-47.06316 2.0334,-51.4413 2.51194,-7.50784 7.27124,-14.01464 13.52777,-18.49484 9.69578,-6.943 9.84867,-6.95992 62.88588,-6.95992 h 47.3185 v 14 14 h -40.78811 c -40.332,0 -40.83718,0.0252 -45.17601,2.25 -6.85908,3.51716 -8.03588,6.73505 -8.03588,21.97366 v 12.75487 l 42.75,0.26073 42.75,0.26074 v 14 14 l -42.82024,0.26079 -42.82023,0.26079 0.32023,15.23921 c 0.34857,16.58731 1.09864,19.41415 6.1424,23.14928 2.74333,2.03155 4.00734,2.09778 45.25,2.37111 l 42.42784,0.28118 v 14.46882 14.46882 l -45.25,-0.0538 c -40.54694,-0.0482 -45.82164,-0.23859 -50.75,-1.83196 z m 121.90377,-3.33821 c -0.0937,-5.13681 -0.048,-155.00433 0.048,-157.55736 0.0387,-1.02967 11.29184,-1.22606 57.2982,-1 l 57.25,0.28131 5.5,2.59715 c 8.53603,4.0308 15.36637,10.84195 19.73412,19.67868 l 3.76588,7.61906 0.35871,19.44926 c 0.41874,22.70399 -0.67802,28.66233 -7.02557,38.16787 -5.38207,8.05971 -13.56884,13.21698 -25.93311,16.3366 -0.32999,0.0833 7.01386,13.08113 16.31965,28.88416 9.3058,15.80304 16.63673,29.19054 16.29096,29.75 -0.38343,0.62041 -6.813,1.01722 -16.4822,1.01722 h -15.85353 l -4.33745,-7.52528 c -2.3856,-4.1389 -10.4218,-17.9764 -17.85822,-30.75 l -13.52072,-23.22472 h -21.97925 -21.97924 l -0.5,30.5 -0.5,30.5 -15.25,0.27605 -15.25,0.27604 z m 104.02515,-87.5276 c 6.42403,-3.2757 7.53435,-5.96493 7.87269,-19.06787 0.27271,-10.56114 0.081,-12.11185 -2,-16.18058 -4.07985,-7.97674 -4.18958,-7.99666 -44.05161,-7.99845 l -34.75,-0.002 v 22.5 22.5 l 34.75,-0.002 c 31.10746,-10e-4 35.10942,-0.18483 38.17892,-1.75 z m 70.07108,10.77828 v -82.02673 h 17.96806 c 17.81013,0 17.97933,0.0206 19.25,2.34158 2.37534,4.3388 46.97305,67.65874 47.63077,67.6263 0.35814,-0.0177 7.59323,-10.03017 16.07796,-22.25 8.48474,-12.21984 19.47962,-27.95538 24.43307,-34.96788 l 9.00628,-12.75 h 18.32278 18.32277 l -0.25584,81.75 -0.25585,81.75 h -15.5 -15.5 l -0.5,-56.83627 -0.5,-56.83628 -4.04176,5.83628 c -11.95086,17.25696 -31.80893,45.22443 -39.11354,55.08627 -9.46583,12.77965 -11.09062,13.58128 -16.0587,7.92295 -1.60665,-1.82987 -11.62493,-15.89237 -22.26283,-31.25 -26.64273,-38.46331 -26.15914,-37.8174 -27.14167,-36.25121 -0.4583,0.73054 -0.83492,26.30326 -0.83693,56.82826 l -0.004,55.5 -14.52045,0.27673 -14.52012,0.27674 z m 231.8129,80.52268 c -16.20214,-4.52869 -26.81659,-15.74991 -29.80525,-31.50906 -0.58354,-3.07701 -1.00765,-24.31787 -1.00765,-50.46674 0,-37.34102 0.26522,-46.17167 1.53291,-51.03865 3.21325,-12.33651 10.4387,-21.28675 21.29194,-26.37455 l 5.67515,-2.66041 49,-0.29064 c 47.62758,-0.28249 49.18539,-0.23114 55.61918,1.83334 11.29038,3.62288 20.68259,13.08914 24.48461,24.67768 1.7561,5.35257 1.89621,9.3632 1.89621,54.27962 0,44.96166 -0.13871,48.92283 -1.90128,54.29574 -3.77782,11.51608 -12.97273,21.22035 -24.59872,25.96138 -5.39842,2.20146 -6.34955,2.2462 -51.5,2.42264 -35.3287,0.13805 -47.08734,-0.12417 -50.6871,-1.13035 z m 90.80337,-30.1112 c 1.51809,-1.13398 3.68796,-3.30467 4.82194,-4.82375 2.00798,-2.68989 2.06179,-3.88995 2.06179,-45.98264 0,-48.02228 0.21868,-46.39362 -6.80433,-50.67582 -3.0196,-1.84117 -5.29491,-1.94873 -41.29779,-1.95226 -37.95082,-0.004 -38.11561,0.005 -41.5,2.26619 -7.02626,4.69385 -6.97043,4.26073 -6.66834,51.73007 l 0.27046,42.5 2.39626,3.35977 c 4.33322,6.07557 4.70016,6.12211 46.2818,5.8693 36.30786,-0.22074 37.77844,-0.30405 40.43821,-2.29086 z"
       id="path53"
       sodipodi:nodetypes="scssscccsscccccsssssssscccssscccccccssscccsssscscsscsssssscsscccccccsccsscccccccsssssscccccccccssssscccccssssscssssssssssssccscssss" />
  </g>
</svg>
